<?xml version="1.0" encoding="UTF-8"?>
<svg version="1.1" xmlns="http://www.w3.org/2000/svg" width="168" height="215">
<path d="M0 0 C24.42 0 48.84 0 74 0 C74 3.3 74 6.6 74 10 C75.340625 9.938125 76.68125 9.87625 78.0625 9.8125 C83.88690285 9.82165787 87.84118615 11.18205149 92.375 15 C96.36689232 19.91309824 95.33490939 26.64445026 95.4050293 32.65917969 C95.42656916 34.04615235 95.46062627 35.43299053 95.50756836 36.81933594 C95.94278816 49.81087934 95.94278816 49.81087934 92.1484375 54.36328125 C87.28932127 58.98990028 82.17200921 59.21849526 75.7578125 59.0703125 C74.88769531 59.03550781 74.88769531 59.03550781 74 59 C74.04640625 59.72445312 74.0928125 60.44890625 74.140625 61.1953125 C74.3707038 67.35813759 74.31835861 71.20182377 70 76 C66.77175681 78.95244364 64.63946993 79.37789454 60.30102539 79.38818359 C58.58388084 79.40236832 58.58388084 79.40236832 56.83204651 79.4168396 C55.59969772 79.41076691 54.36734894 79.40469421 53.09765625 79.3984375 C51.8278038 79.40130768 50.55795135 79.40417786 49.24961853 79.40713501 C46.56364283 79.40917691 43.87848569 79.40514724 41.19262695 79.39111328 C37.75823826 79.3740384 34.32455383 79.38385438 30.89019108 79.40183067 C27.60515463 79.41531104 24.32020191 79.40585692 21.03515625 79.3984375 C19.8048317 79.40451019 18.57450714 79.41058289 17.30690002 79.4168396 C15.58502724 79.40265488 15.58502724 79.40265488 13.82836914 79.38818359 C12.82117325 79.38579681 11.81397736 79.38341003 10.77626038 79.38095093 C6.4073045 78.78145464 3.9446612 77.18381003 1.20878601 73.75532532 C-0.30805329 70.29781862 -0.36068696 67.68892041 -0.34057617 63.91479492 C-0.34093778 63.21042706 -0.34129938 62.50605921 -0.34167194 61.78034687 C-0.33944309 59.51342582 -0.31664623 57.2472564 -0.29296875 54.98046875 C-0.28855468 53.5757279 -0.28549613 52.17098212 -0.28381348 50.76623535 C-0.26812213 45.57324803 -0.22623824 40.38036653 -0.1875 35.1875 C-0.125625 23.575625 -0.06375 11.96375 0 0 Z M74 16 C74 27.88 74 39.76 74 52 C77.96 52 81.92 52 86 52 C89.63339216 48.36660784 89.38418574 47.43922206 89.3984375 42.46875 C89.40230469 41.18355469 89.40617187 39.89835937 89.41015625 38.57421875 C89.40072998 37.57140869 89.40072998 37.57140869 89.39111328 36.54833984 C89.37505354 34.5068067 89.39096671 32.46725292 89.41015625 30.42578125 C89.40628906 29.14058594 89.40242188 27.85539062 89.3984375 26.53125 C89.39505371 25.35111328 89.39166992 24.17097656 89.38818359 22.95507812 C89.24199084 20.02559555 89.24199084 20.02559555 87.66259766 18.15429688 C83.13862318 15.01342297 79.97207758 16 74 16 Z " fill="#6B7DE9" transform="translate(41,100)"/>
<path d="M0 0 C1.98 0 3.96 0 6 0 C6.31378312 5.22971874 5.90940049 8.58573719 3 13 C-1.61742019 16.82196075 -6.40258525 16.47275937 -12.11328125 16.51171875 C-13.08283249 16.52966995 -14.05238373 16.54762115 -15.05131531 16.56611633 C-18.13833306 16.62016049 -21.2251967 16.65409647 -24.3125 16.6875 C-26.40952662 16.72067824 -28.50653293 16.75516837 -30.60351562 16.79101562 C-35.7355658 16.87588378 -40.86757072 16.94272337 -46 17 C-46 19.64 -46 22.28 -46 25 C-44.69329346 25.01458252 -43.38658691 25.02916504 -42.0402832 25.04418945 C-37.18518925 25.10222815 -32.33055637 25.17946116 -27.47583008 25.26245117 C-25.37597139 25.29567422 -23.27602397 25.3237143 -21.17602539 25.34643555 C-18.15472656 25.38002936 -15.13423899 25.43234834 -12.11328125 25.48828125 C-11.17664139 25.49467117 -10.24000153 25.5010611 -9.27497864 25.50764465 C-4.42330105 25.61670884 -0.8693327 25.73502747 3 29 C5.01072978 32.55228928 6 35.03244975 6 39.125 C4.72734599 42.78388029 2.95519116 44.5373407 0 47 C-2.6825696 47.89418987 -4.31333219 48.14115242 -7.07250977 48.18945312 C-7.88667862 48.20617065 -8.70084747 48.22288818 -9.53968811 48.2401123 C-10.4147551 48.25368774 -11.28982208 48.26726318 -12.19140625 48.28125 C-13.0924559 48.29965942 -13.99350555 48.31806885 -14.92185974 48.33703613 C-18.78006081 48.41574381 -22.63843596 48.48354691 -26.49682617 48.55224609 C-29.31177553 48.60391394 -32.12657246 48.66117876 -34.94140625 48.71875 C-35.81849747 48.73232544 -36.69558868 48.74590088 -37.59925842 48.7598877 C-41.93677359 48.72242876 -41.93677359 48.72242876 -46 50 C-46.16687448 52.41645782 -46.16687448 52.41645782 -46 55 C-43.6199068 57.3800932 -43.13898897 57.24990193 -39.9050293 57.25537109 C-38.63812508 57.26580948 -38.63812508 57.26580948 -37.34562683 57.27645874 C-36.43106216 57.27546173 -35.5164975 57.27446472 -34.57421875 57.2734375 C-32.64387446 57.29373111 -30.71353596 57.31458198 -28.78320312 57.3359375 C-25.73505782 57.35852545 -22.68714111 57.37500069 -19.63891602 57.38085938 C-16.70026116 57.39038731 -13.76264154 57.42417523 -10.82421875 57.4609375 C-9.91572678 57.45589203 -9.0072348 57.45084656 -8.07121277 57.44564819 C-3.88016398 57.51073373 -1.59464784 57.62948829 2.03198242 59.88916016 C5.33771989 63.43480042 5.9666119 65.98166297 6.125 70.8125 C6.08375 71.864375 6.0425 72.91625 6 74 C4.02 74 2.04 74 0 74 C-0.66 71.03 -1.32 68.06 -2 65 C-3.205354 64.98541748 -4.41070801 64.97083496 -5.65258789 64.95581055 C-10.14620884 64.89761675 -14.63933971 64.82038552 -19.13256836 64.73754883 C-21.07324235 64.70439841 -23.01401046 64.676336 -24.95483398 64.65356445 C-27.75284747 64.61983616 -30.5500061 64.56751181 -33.34765625 64.51171875 C-34.2083522 64.50532883 -35.06904816 64.4989389 -35.95582581 64.49235535 C-41.35658116 64.36203653 -45.21103337 63.55274663 -50 61 C-52.4653642 58.13699641 -52.95550348 56.30591356 -53.5 52.5625 C-52.83624442 47.83324149 -51.34318209 46.34318209 -48 43 C-45.7168756 41.8584378 -44.36520695 41.84665628 -41.82568359 41.79467773 C-40.53457169 41.7647599 -40.53457169 41.7647599 -39.21737671 41.73423767 C-38.28712677 41.71752518 -37.35687683 41.70081268 -36.3984375 41.68359375 C-35.44683746 41.66281265 -34.49523743 41.64203156 -33.51480103 41.62062073 C-30.46827568 41.55511867 -27.42166257 41.4962372 -24.375 41.4375 C-22.31249084 41.39431541 -20.24999063 41.35070114 -18.1875 41.30664062 C-13.12509046 41.1994366 -8.06259245 41.09817098 -3 41 C-1.80161791 38.67145537 -1.80161791 38.67145537 -1 36 C-2.58100676 32.86775779 -2.58100676 32.86775779 -4.7946167 32.62818909 C-5.87999725 32.62963173 -5.87999725 32.62963173 -6.98730469 32.63110352 C-7.80865906 32.62422012 -8.63001343 32.61733673 -9.47625732 32.61024475 C-10.36581116 32.61640305 -11.25536499 32.62256134 -12.171875 32.62890625 C-14.05208508 32.61151606 -15.93229337 32.59393176 -17.8125 32.57617188 C-20.77933144 32.56611565 -23.74604288 32.56249772 -26.71289062 32.56420898 C-29.57458241 32.56062948 -32.43534842 32.53324149 -35.296875 32.50390625 C-36.17833191 32.51208878 -37.05978882 32.5202713 -37.96795654 32.52870178 C-43.60960213 32.46081264 -46.65106568 31.65822626 -51 28 C-53.35242347 24.79214982 -53.4684209 21.90350748 -53 18 C-50.85274403 14.01223891 -49.20968011 11.66808499 -45 10 C-42.84857178 9.7215271 -42.84857178 9.7215271 -40.50683594 9.68115234 C-39.62622498 9.66128265 -38.74561401 9.64141296 -37.83831787 9.62094116 C-36.42561615 9.60361435 -36.42561615 9.60361435 -34.984375 9.5859375 C-34.01340881 9.56657135 -33.04244263 9.5472052 -32.04205322 9.5272522 C-28.94479114 9.46753491 -25.84749174 9.4211022 -22.75 9.375 C-20.64842141 9.33681302 -18.54685835 9.29776086 -16.4453125 9.2578125 C-11.29700132 9.16183969 -6.14861688 9.0777794 -1 9 C-0.67 6.03 -0.34 3.06 0 0 Z " fill="#12B9E1" transform="translate(99,21)"/>
<path d="M0 0 C1.98 0 3.96 0 6 0 C6.31378312 5.22971874 5.90940049 8.58573719 3 13 C-1.61742019 16.82196075 -6.40258525 16.47275937 -12.11328125 16.51171875 C-13.08283249 16.52966995 -14.05238373 16.54762115 -15.05131531 16.56611633 C-18.13833306 16.62016049 -21.2251967 16.65409647 -24.3125 16.6875 C-26.40952662 16.72067824 -28.50653293 16.75516837 -30.60351562 16.79101562 C-35.7355658 16.87588378 -40.86757072 16.94272337 -46 17 C-46 19.64 -46 22.28 -46 25 C-39.73 25.33 -33.46 25.66 -27 26 C-26.67 27.65 -26.34 29.3 -26 31 C-29.63554581 32.2118486 -33.02407752 32.2609802 -36.8125 32.3125 C-37.86147461 32.35600586 -37.86147461 32.35600586 -38.93164062 32.40039062 C-44.07430859 32.46293009 -46.89873112 31.34200514 -51 28 C-53.35242347 24.79214982 -53.4684209 21.90350748 -53 18 C-50.85274403 14.01223891 -49.20968011 11.66808499 -45 10 C-42.84857178 9.7215271 -42.84857178 9.7215271 -40.50683594 9.68115234 C-39.62622498 9.66128265 -38.74561401 9.64141296 -37.83831787 9.62094116 C-36.42561615 9.60361435 -36.42561615 9.60361435 -34.984375 9.5859375 C-34.01340881 9.56657135 -33.04244263 9.5472052 -32.04205322 9.5272522 C-28.94479114 9.46753491 -25.84749174 9.4211022 -22.75 9.375 C-20.64842141 9.33681302 -18.54685835 9.29776086 -16.4453125 9.2578125 C-11.29700132 9.16183969 -6.14861688 9.0777794 -1 9 C-0.67 6.03 -0.34 3.06 0 0 Z " fill="#12BCE4" transform="translate(99,21)"/>
<path d="M0 0 C4.06236402 -0.08729047 8.12448589 -0.14048992 12.1875 -0.1875 C13.91323242 -0.22520508 13.91323242 -0.22520508 15.67382812 -0.26367188 C17.34155273 -0.27817383 17.34155273 -0.27817383 19.04296875 -0.29296875 C20.06414795 -0.3086792 21.08532715 -0.32438965 22.13745117 -0.34057617 C25.49430398 0.05881058 27.31012274 0.97652191 30 3 C32.01072978 6.55228928 33 9.03244975 33 13.125 C31.72734599 16.78388029 29.95519116 18.5373407 27 21 C24.26893489 21.91035504 22.70106761 22.12215713 19.89575195 22.11352539 C18.6648156 22.11341209 18.6648156 22.11341209 17.40901184 22.11329651 C16.0870002 22.10555458 16.0870002 22.10555458 14.73828125 22.09765625 C13.83248825 22.0962413 12.92669525 22.09482635 11.99345398 22.09336853 C9.09976909 22.08777001 6.20616151 22.07521781 3.3125 22.0625 C1.35091258 22.05748481 -0.61067606 22.05292193 -2.57226562 22.04882812 C-7.38154021 22.03780107 -12.190757 22.02053747 -17 22 C-17 21.67 -17 21.34 -17 21 C-11.06 21 -5.12 21 1 21 C1 19.68 1 18.36 1 17 C-0.32 16.67 -1.64 16.34 -3 16 C5.91 15.67 14.82 15.34 24 15 C24.66 13.35 25.32 11.7 26 10 C25.34 9.01 24.68 8.02 24 7 C21.28995497 6.489395 21.28995497 6.489395 18.1171875 6.48828125 C16.95058594 6.45283203 15.78398438 6.41738281 14.58203125 6.38085938 C13.35871094 6.35830078 12.13539062 6.33574219 10.875 6.3125 C9.64394531 6.27833984 8.41289063 6.24417969 7.14453125 6.20898438 C4.0964449 6.12628436 1.04865429 6.05720573 -2 6 C-1.01 5.67 -0.02 5.34 1 5 C0.67 3.35 0.34 1.7 0 0 Z " fill="#D515C7" transform="translate(72,47)"/>
<path d="M0 0 C4.06225821 -0.11638426 8.1240863 -0.18731373 12.1875 -0.25 C13.33798828 -0.28351563 14.48847656 -0.31703125 15.67382812 -0.3515625 C16.78564453 -0.36445312 17.89746094 -0.37734375 19.04296875 -0.390625 C20.06414795 -0.41157227 21.08532715 -0.43251953 22.13745117 -0.45410156 C25.75559291 0.11986378 27.38399701 1.49007071 30 4 C32.25441673 7.97206757 32.17659715 11.49677268 32 16 C30.02 16 28.04 16 26 16 C25.34 13.03 24.68 10.06 24 7 C3.705 6.505 3.705 6.505 -17 6 C-17 5.67 -17 5.34 -17 5 C-11.39 5 -5.78 5 0 5 C0 3.35 0 1.7 0 0 Z " fill="#8438A4" transform="translate(73,79)"/>
<path d="M0 0 C2.475 0.99 2.475 0.99 5 2 C4.04416032 3.93873142 3.08523808 5.8759433 2.125 7.8125 C1.59132813 8.89144531 1.05765625 9.97039062 0.5078125 11.08203125 C-1 14 -1 14 -3 17 C-2.73391361 21.88507314 -0.99138088 25.14315318 1.5625 29.25 C5 34.81086519 5 34.81086519 5 37 C3.35 37.66 1.7 38.32 0 39 C-1.90487449 35.95514788 -3.76825308 32.88689617 -5.625 29.8125 C-6.16640625 28.94818359 -6.7078125 28.08386719 -7.265625 27.19335938 C-7.76835938 26.35224609 -8.27109375 25.51113281 -8.7890625 24.64453125 C-9.26037598 23.87471924 -9.73168945 23.10490723 -10.21728516 22.31176758 C-11 20 -11 20 -10.25756836 17.42944336 C-9.8425708 16.62772705 -9.42757324 15.82601074 -9 15 C-8.68796631 14.39381836 -8.37593262 13.78763672 -8.05444336 13.16308594 C-7.73612549 12.60911133 -7.41780762 12.05513672 -7.08984375 11.484375 C-6.73986328 10.87335938 -6.38988281 10.26234375 -6.02929688 9.6328125 C-5.66900391 9.01148438 -5.30871094 8.39015625 -4.9375 7.75 C-4.57333984 7.11320313 -4.20917969 6.47640625 -3.83398438 5.8203125 C-1.14074248 1.14074248 -1.14074248 1.14074248 0 0 Z " fill="#22282C" transform="translate(62,123)"/>
<path d="M0 0 C4.62047772 1.54015924 5.91235814 5.18822147 8.3125 9.25 C8.79267578 10.01441406 9.27285156 10.77882812 9.76757812 11.56640625 C13.12952219 17.21681442 13.12952219 17.21681442 12.58203125 20.52734375 C12.05996094 21.34332031 11.53789063 22.15929687 11 23 C10.27435955 24.32709237 9.55345655 25.65678036 8.8359375 26.98828125 C8.01878359 28.4314805 7.19839195 29.87285064 6.375 31.3125 C5.95476562 32.05306641 5.53453125 32.79363281 5.1015625 33.55664062 C4.07051505 35.37269011 3.03563954 37.18656533 2 39 C0.35 38.34 -1.3 37.68 -3 37 C-1.24067146 32.25410399 1.23499232 28.1306801 3.85546875 23.81640625 C5.29138589 20.28297191 5.0720499 18.64030858 4 15 C2.40440556 11.74994609 2.40440556 11.74994609 0.4375 8.625 C-0.20316406 7.56539062 -0.84382813 6.50578125 -1.50390625 5.4140625 C-2.24447266 4.21910156 -2.24447266 4.21910156 -3 3 C-2.01 2.01 -1.02 1.02 0 0 Z " fill="#2A272F" transform="translate(92,123)"/>
<path d="M0 0 C1.65 0.33 3.3 0.66 5 1 C4.55637681 7.54344199 3.13296598 13.25759442 1.12109375 19.4921875 C-0.0787874 23.24651946 -1.17778407 27.02025684 -2.25 30.8125 C-2.58515625 31.99457031 -2.9203125 33.17664063 -3.265625 34.39453125 C-3.50796875 35.25433594 -3.7503125 36.11414063 -4 37 C-6.475 37.495 -6.475 37.495 -9 38 C-10.35513456 33.93459632 -9.09206909 31.01038196 -7.91015625 27.05078125 C-7.68678085 26.27816452 -7.46340546 25.50554779 -7.23326111 24.70951843 C-6.51769405 22.24142893 -5.79026554 19.77701695 -5.0625 17.3125 C-4.57538691 15.64020241 -4.08904908 13.96767878 -3.60351562 12.29492188 C-2.41132517 8.19393722 -1.20848497 4.09621114 0 0 Z " fill="#262931" transform="translate(80,123)"/>
<path d="M0 0 C1.98 0 3.96 0 6 0 C6.31378312 5.22971874 5.90940049 8.58573719 3 13 C-1.43424274 16.56922948 -5.39300661 16.36466701 -10.8125 16.1875 C-11.60076172 16.17396484 -12.38902344 16.16042969 -13.20117188 16.14648438 C-15.13441169 16.11133456 -17.06729682 16.05753361 -19 16 C-18.01 15.67 -17.02 15.34 -16 15 C-16 13.68 -16 12.36 -16 11 C-15.16855469 10.93941406 -14.33710937 10.87882812 -13.48046875 10.81640625 C-12.39378906 10.73261719 -11.30710937 10.64882813 -10.1875 10.5625 C-9.10855469 10.48128906 -8.02960938 10.40007813 -6.91796875 10.31640625 C-3.94010095 10.09787539 -3.94010095 10.09787539 -1 9 C-0.67 6.03 -0.34 3.06 0 0 Z " fill="#D713C5" transform="translate(99,21)"/>
<path d="M0 0 C13.53 0 27.06 0 41 0 C41 0.33 41 0.66 41 1 C37.04 1 33.08 1 29 1 C29 2.32 29 3.64 29 5 C25.8815675 6.0394775 23.72524414 6.11494838 20.45703125 6.09765625 C19.38388672 6.09443359 18.31074219 6.09121094 17.20507812 6.08789062 C16.08552734 6.07951172 14.96597656 6.07113281 13.8125 6.0625 C12.68134766 6.05798828 11.55019531 6.05347656 10.38476562 6.04882812 C7.58979073 6.03703498 4.7949218 6.0205765 2 6 C2 5.67 2 5.34 2 5 C4.64 5 7.28 5 10 5 C9.67 3.68 9.34 2.36 9 1 C6.03 1 3.06 1 0 1 C0 0.67 0 0.34 0 0 Z " fill="#566AB9" transform="translate(54,31)"/>
<path d="M0 0 C8.25 0 16.5 0 25 0 C24.01 0.33 23.02 0.66 22 1 C21.26676204 3.01508358 21.26676204 3.01508358 21 5 C21.66 5.33 22.32 5.66 23 6 C14.75 6 6.5 6 -2 6 C-1.01 5.67 -0.02 5.34 1 5 C0.67 3.35 0.34 1.7 0 0 Z " fill="#8652C9" transform="translate(72,47)"/>
<path d="M0 0 C8.58 0 17.16 0 26 0 C26 0.33 26 0.66 26 1 C22.04 1 18.08 1 14 1 C14 2.32 14 3.64 14 5 C18.29 5 22.58 5 27 5 C27 5.33 27 5.66 27 6 C13.47 6 -0.06 6 -14 6 C-14 5.67 -14 5.34 -14 5 C-8.06 5 -2.12 5 4 5 C4 3.68 4 2.36 4 1 C2.68 0.67 1.36 0.34 0 0 Z " fill="#7253B6" transform="translate(69,63)"/>
<path d="M0 0 C6.27 0.33 12.54 0.66 19 1 C19 2.65 19 4.3 19 6 C12.07 6 5.14 6 -2 6 C-1.34 4.02 -0.68 2.04 0 0 Z " fill="#33ACF1" transform="translate(54,78)"/>
<path d="M0 0 C2.75 -0.3125 2.75 -0.3125 6 0 C9.68133688 3.68133688 10.9739764 6.4646075 11.0625 11.6875 C11.041875 12.780625 11.02125 13.87375 11 15 C9.02 15 7.04 15 5 15 C4.90203125 14.37351562 4.8040625 13.74703125 4.703125 13.1015625 C4.55359375 12.28429687 4.4040625 11.46703125 4.25 10.625 C4.11078125 9.81289062 3.9715625 9.00078125 3.828125 8.1640625 C3.18250739 5.82290908 3.18250739 5.82290908 0.921875 4.7109375 C0.28765625 4.47632812 -0.3465625 4.24171875 -1 4 C-0.67 2.68 -0.34 1.36 0 0 Z " fill="#D513C3" transform="translate(94,80)"/>
<path d="M0 0 C5.28 0 10.56 0 16 0 C16.33 1.65 16.66 3.3 17 5 C13.23699626 6.25433458 9.72789091 6.10695422 5.8125 6.0625 C5.06291016 6.05798828 4.31332031 6.05347656 3.54101562 6.04882812 C1.69397617 6.03706354 -0.15302213 6.01912865 -2 6 C-2 5.67 -2 5.34 -2 5 C0.64 4.67 3.28 4.34 6 4 C6.33 3.01 6.66 2.02 7 1 C4.69 1 2.38 1 0 1 C0 0.67 0 0.34 0 0 Z " fill="#5183D7" transform="translate(56,47)"/>
<path d="M0 0 C3.63 0 7.26 0 11 0 C10.67 1.32 10.34 2.64 10 4 C11.32 4.33 12.64 4.66 14 5 C8.39 5 2.78 5 -3 5 C-2.01 4.67 -1.02 4.34 0 4 C0 2.68 0 1.36 0 0 Z " fill="#AC3BD0" transform="translate(83,32)"/>
<path d="M0 0 C2.58340384 -0.02703562 5.16652308 -0.04685611 7.75 -0.0625 C8.47960938 -0.07087891 9.20921875 -0.07925781 9.9609375 -0.08789062 C13.48670558 -0.10391684 16.61034916 0.04707287 20 1 C20 2.32 20 3.64 20 5 C17.03 5 14.06 5 11 5 C10.67 3.68 10.34 2.36 10 1 C6.7 1 3.4 1 0 1 C0 0.67 0 0.34 0 0 Z " fill="#5485DC" transform="translate(53,63)"/>
<path d="M0 0 C3.3 0 6.6 0 10 0 C10 1.65 10 3.3 10 5 C6.7 5 3.4 5 0 5 C0 3.35 0 1.7 0 0 Z " fill="#8B64E7" transform="translate(73,79)"/>
<path d="M0 0 C3.3 0 6.6 0 10 0 C10 1.65 10 3.3 10 5 C7.03 5 4.06 5 1 5 C0.67 3.35 0.34 1.7 0 0 Z " fill="#6089EE" transform="translate(63,79)"/>
<path d="M0 0 C3.63 0 7.26 0 11 0 C11.33 1.32 11.66 2.64 12 4 C10.01432292 4.22786458 8.02864583 4.45572917 6.04296875 4.68359375 C3.80603607 4.97170735 3.80603607 4.97170735 1 6 C0.67 4.02 0.34 2.04 0 0 Z " fill="#32ADF1" transform="translate(52,32)"/>
<path d="M0 0 C3.3 0 6.6 0 10 0 C10.33 1.32 10.66 2.64 11 4 C8.03 4 5.06 4 2 4 C2 4.66 2 5.32 2 6 C1.34 6 0.68 6 0 6 C0 4.02 0 2.04 0 0 Z " fill="#32ADF1" transform="translate(53,64)"/>
<path d="M0 0 C3.3 0.66 6.6 1.32 10 2 C9.67 3.32 9.34 4.64 9 6 C5.7 6 2.4 6 -1 6 C-0.67 4.02 -0.34 2.04 0 0 Z " fill="#30AEF0" transform="translate(53,46)"/>
<path d="M0 0 C3.63 0 7.26 0 11 0 C10.67 1.32 10.34 2.64 10 4 C6.7 4 3.4 4 0 4 C0 2.68 0 1.36 0 0 Z " fill="#B83DDF" transform="translate(83,64)"/>
<path d="M0 0 C3.63 0 7.26 0 11 0 C10.67 1.32 10.34 2.64 10 4 C6.7 4 3.4 4 0 4 C0 2.68 0 1.36 0 0 Z " fill="#B83DDF" transform="translate(83,48)"/>
<path d="M0 0 C3.3 0 6.6 0 10 0 C10 1.32 10 2.64 10 4 C6.7 4 3.4 4 0 4 C0 2.68 0 1.36 0 0 Z " fill="#8B64E7" transform="translate(73,32)"/>
</svg>
